<svg xmlns="http://www.w3.org/2000/svg" width="898" height="364" viewBox="0 0 898 364">
<style>
  .surface { fill: #fcfcfb }
  .ink { fill: #0b0b0b }
  .ink-2 { fill: #52514e }
  .muted { fill: #898781 }
  .grid { stroke: #e1e0d9; stroke-width: 1 }
  .axis { stroke: #c3c2b7; stroke-width: 1 }
  .band { fill: #f0efec }
  .other { fill: #898781; stroke: #898781 }
  .s1 { fill: #2a78d6; stroke: #2a78d6 }
  .s2 { fill: #eb6834; stroke: #eb6834 }
  .s3 { fill: #1baf7a; stroke: #1baf7a }
  .s4 { fill: #eda100; stroke: #eda100 }
  .line { fill: none; stroke-width: 2; stroke-linejoin: round }
  .ref { fill: none; stroke: #52514e; stroke-width: 1.5; stroke-dasharray: 5 4 }
  text { font-family: system-ui, -apple-system, "Segoe UI", sans-serif; font-size: 12px }
  .title { font-size: 14px; font-weight: 600 }
  .small { font-size: 11px }
  @media (prefers-color-scheme: dark) {
    .surface { fill: #1a1a19 }
    .ink { fill: #ffffff }
    .ink-2 { fill: #c3c2b7 }
    .grid { stroke: #2c2c2a }
    .axis { stroke: #383835 }
    .band { fill: #262624 }
    .s1 { fill: #3987e5; stroke: #3987e5 }
    .s2 { fill: #d95926; stroke: #d95926 }
    .s3 { fill: #199e70; stroke: #199e70 }
    .s4 { fill: #c98500; stroke: #c98500 }
    .ref { stroke: #c3c2b7 }
  }
</style>
<rect class="surface" width="898" height="364" rx="8"/>
<text class="ink title" x="16" y="24">Deadline hit rate by policy (cage)</text>
<text class="ink-2 small" x="16" y="42">Share of submitted tasks finished by their deadline, mean and 95% interval over seeds. Rejected tasks count as misses.</text>
<text class="ink-2" x="120" y="81" text-anchor="end">never</text>
<text class="ink-2" x="120" y="107" text-anchor="end">static-4</text>
<text class="ink-2" x="120" y="133" text-anchor="end">pool-10</text>
<text class="ink-2" x="120" y="159" text-anchor="end">box</text>
<text class="ink-2" x="120" y="185" text-anchor="end">timer+budget</text>
<text class="ink-2" x="120" y="211" text-anchor="end">forecast</text>
<text class="ink" x="120" y="237" text-anchor="end">forecast+budget</text>
<text class="ink-2" x="120" y="263" text-anchor="end">perfect</text>
<text class="ink-2" x="120" y="289" text-anchor="end">forecast+idle</text>
<text class="ink-2" x="120" y="315" text-anchor="end">forecast+preempt</text>
<text class="ink" x="189" y="56" text-anchor="middle">calm</text>
<line class="grid" x1="130" x2="130" y1="64" y2="324"/>
<text class="muted small" x="130" y="340" text-anchor="middle">0%</text>
<line class="grid" x1="189" x2="189" y1="64" y2="324"/>
<text class="muted small" x="189" y="340" text-anchor="middle">50%</text>
<line class="grid" x1="248" x2="248" y1="64" y2="324"/>
<text class="muted small" x="248" y="340" text-anchor="middle">100%</text>
<line class="other" x1="177.0885833147174" x2="186.52074567376303" y1="77" y2="77" stroke-width="2" stroke-linecap="round"/>
<circle class="other" cx="181.80124661609162" cy="77" r="4.5" stroke="none"/>
<line class="other" x1="189.83657945227642" x2="202.49634895647847" y1="103" y2="103" stroke-width="2" stroke-linecap="round"/>
<circle class="other" cx="196.03846854846444" cy="103" r="4.5" stroke="none"/>
<line class="other" x1="202.40666258804126" x2="213.77045329799012" y1="129" y2="129" stroke-width="2" stroke-linecap="round"/>
<circle class="other" cx="208.34424817658524" cy="129" r="4.5" stroke="none"/>
<line class="other" x1="143.9694869230058" x2="156.25171803212305" y1="155" y2="155" stroke-width="2" stroke-linecap="round"/>
<circle class="other" cx="149.8994159461857" cy="155" r="4.5" stroke="none"/>
<line class="other" x1="176.913464898514" x2="186.29382477427" y1="181" y2="181" stroke-width="2" stroke-linecap="round"/>
<circle class="other" cx="181.80124661609162" cy="181" r="4.5" stroke="none"/>
<line class="other" x1="135.3523716312574" x2="145.44100634500109" y1="207" y2="207" stroke-width="2" stroke-linecap="round"/>
<circle class="other" cx="140.08970957789538" cy="207" r="4.5" stroke="none"/>
<line class="s1" x1="190.8163831399294" x2="201.7412775539995" y1="233" y2="233" stroke-width="2" stroke-linecap="round"/>
<circle class="s1" cx="196.19865208455565" cy="233" r="4.5" stroke="none"/>
<line class="other" x1="189.05702982471342" x2="198.41075329738482" y1="259" y2="259" stroke-width="2" stroke-linecap="round"/>
<circle class="other" cx="193.89621699790317" cy="259" r="4.5" stroke="none"/>
<line class="other" x1="189.76732178151173" x2="201.9310769796498" y1="285" y2="285" stroke-width="2" stroke-linecap="round"/>
<circle class="other" cx="195.8611920277043" cy="285" r="4.5" stroke="none"/>
<line class="other" x1="202.10457174096376" x2="215.03313722415035" y1="311" y2="311" stroke-width="2" stroke-linecap="round"/>
<circle class="other" cx="208.6937171308336" cy="311" r="4.5" stroke="none"/>
<text class="ink" x="341" y="56" text-anchor="middle">skew</text>
<line class="grid" x1="282" x2="282" y1="64" y2="324"/>
<text class="muted small" x="282" y="340" text-anchor="middle">0%</text>
<line class="grid" x1="341" x2="341" y1="64" y2="324"/>
<text class="muted small" x="341" y="340" text-anchor="middle">50%</text>
<line class="grid" x1="400" x2="400" y1="64" y2="324"/>
<text class="muted small" x="400" y="340" text-anchor="middle">100%</text>
<line class="other" x1="318.0280880370758" x2="326.41990057831015" y1="77" y2="77" stroke-width="2" stroke-linecap="round"/>
<circle class="other" cx="322.1131404515994" cy="77" r="4.5" stroke="none"/>
<line class="other" x1="317.0218947768814" x2="332.30349910784844" y1="103" y2="103" stroke-width="2" stroke-linecap="round"/>
<circle class="other" cx="324.7635343393991" cy="103" r="4.5" stroke="none"/>
<line class="other" x1="329.4035414493302" x2="345.3542613494903" y1="129" y2="129" stroke-width="2" stroke-linecap="round"/>
<circle class="other" cx="337.4224651419777" cy="129" r="4.5" stroke="none"/>
<line class="other" x1="291.39083400794203" x2="297.9071866874156" y1="155" y2="155" stroke-width="2" stroke-linecap="round"/>
<circle class="other" cx="294.5335763746521" cy="155" r="4.5" stroke="none"/>
<line class="other" x1="312.63336453536357" x2="324.5835485230265" y1="181" y2="181" stroke-width="2" stroke-linecap="round"/>
<circle class="other" cx="318.89165271668924" cy="181" r="4.5" stroke="none"/>
<line class="other" x1="289.82470755248926" x2="295.49837796094585" y1="207" y2="207" stroke-width="2" stroke-linecap="round"/>
<circle class="other" cx="292.7205448477282" cy="207" r="4.5" stroke="none"/>
<line class="s1" x1="309.7307314359225" x2="326.38554682297297" y1="233" y2="233" stroke-width="2" stroke-linecap="round"/>
<circle class="s1" cx="318.130673756512" cy="233" r="4.5" stroke="none"/>
<line class="other" x1="315.76598266052736" x2="329.6668982678487" y1="259" y2="259" stroke-width="2" stroke-linecap="round"/>
<circle class="other" cx="323.0346464454922" cy="259" r="4.5" stroke="none"/>
<line class="other" x1="314.4206383771851" x2="327.28804063979175" y1="285" y2="285" stroke-width="2" stroke-linecap="round"/>
<circle class="other" cx="320.7796723416171" cy="285" r="4.5" stroke="none"/>
<line class="other" x1="316.69195394704195" x2="329.6742570150727" y1="311" y2="311" stroke-width="2" stroke-linecap="round"/>
<circle class="other" cx="323.2114037274994" cy="311" r="4.5" stroke="none"/>
<text class="ink" x="493" y="56" text-anchor="middle">neighbour</text>
<line class="grid" x1="434" x2="434" y1="64" y2="324"/>
<text class="muted small" x="434" y="340" text-anchor="middle">0%</text>
<line class="grid" x1="493" x2="493" y1="64" y2="324"/>
<text class="muted small" x="493" y="340" text-anchor="middle">50%</text>
<line class="grid" x1="552" x2="552" y1="64" y2="324"/>
<text class="muted small" x="552" y="340" text-anchor="middle">100%</text>
<line class="other" x1="482.3038600987983" x2="491.2189328121027" y1="77" y2="77" stroke-width="2" stroke-linecap="round"/>
<circle class="other" cx="486.82255433248287" cy="77" r="4.5" stroke="none"/>
<line class="other" x1="490.22773136096095" x2="500.277659187299" y1="103" y2="103" stroke-width="2" stroke-linecap="round"/>
<circle class="other" cx="495.21041610082784" cy="103" r="4.5" stroke="none"/>
<line class="other" x1="496.96379948045313" x2="506.99912394950854" y1="129" y2="129" stroke-width="2" stroke-linecap="round"/>
<circle class="other" cx="501.93156546248406" cy="129" r="4.5" stroke="none"/>
<line class="other" x1="444.9306000947692" x2="457.13193570285233" y1="155" y2="155" stroke-width="2" stroke-linecap="round"/>
<circle class="other" cx="450.6090373182627" cy="155" r="4.5" stroke="none"/>
<line class="other" x1="482.3167877529437" x2="491.2272666178872" y1="181" y2="181" stroke-width="2" stroke-linecap="round"/>
<circle class="other" cx="486.82255433248287" cy="181" r="4.5" stroke="none"/>
<line class="other" x1="443.0156664031621" x2="457.5670461959411" y1="207" y2="207" stroke-width="2" stroke-linecap="round"/>
<circle class="other" cx="449.34321913644453" cy="207" r="4.5" stroke="none"/>
<line class="s1" x1="490.5405341059534" x2="500.7085008086268" y1="233" y2="233" stroke-width="2" stroke-linecap="round"/>
<circle class="s1" cx="495.5630608605851" cy="233" r="4.5" stroke="none"/>
<line class="other" x1="490.59148170332696" x2="500.0390293237552" y1="259" y2="259" stroke-width="2" stroke-linecap="round"/>
<circle class="other" cx="495.34127206492445" cy="259" r="4.5" stroke="none"/>
<line class="other" x1="491.195099706533" x2="500.2004237633974" y1="285" y2="285" stroke-width="2" stroke-linecap="round"/>
<circle class="other" cx="495.6912777609069" cy="285" r="4.5" stroke="none"/>
<line class="other" x1="496.8549890546852" x2="505.9368372000901" y1="311" y2="311" stroke-width="2" stroke-linecap="round"/>
<circle class="other" cx="501.46042053494784" cy="311" r="4.5" stroke="none"/>
<text class="ink" x="645" y="56" text-anchor="middle">burst</text>
<line class="grid" x1="586" x2="586" y1="64" y2="324"/>
<text class="muted small" x="586" y="340" text-anchor="middle">0%</text>
<line class="grid" x1="645" x2="645" y1="64" y2="324"/>
<text class="muted small" x="645" y="340" text-anchor="middle">50%</text>
<line class="grid" x1="704" x2="704" y1="64" y2="324"/>
<text class="muted small" x="704" y="340" text-anchor="middle">100%</text>
<line class="other" x1="631.8637572346123" x2="645.1282706168034" y1="77" y2="77" stroke-width="2" stroke-linecap="round"/>
<circle class="other" cx="638.485228427993" cy="77" r="4.5" stroke="none"/>
<line class="other" x1="644.4579645400913" x2="655.2736570398764" y1="103" y2="103" stroke-width="2" stroke-linecap="round"/>
<circle class="other" cx="649.6616212950373" cy="103" r="4.5" stroke="none"/>
<line class="other" x1="656.6051902145005" x2="666.8248125434752" y1="129" y2="129" stroke-width="2" stroke-linecap="round"/>
<circle class="other" cx="661.625936435456" cy="129" r="4.5" stroke="none"/>
<line class="other" x1="596.0239457597995" x2="609.7422156023198" y1="155" y2="155" stroke-width="2" stroke-linecap="round"/>
<circle class="other" cx="602.5459248497841" cy="155" r="4.5" stroke="none"/>
<line class="other" x1="632.0004365798843" x2="645.0110027460988" y1="181" y2="181" stroke-width="2" stroke-linecap="round"/>
<circle class="other" cx="638.485228427993" cy="181" r="4.5" stroke="none"/>
<line class="other" x1="591.5214832935449" x2="603.5286771779535" y1="207" y2="207" stroke-width="2" stroke-linecap="round"/>
<circle class="other" cx="596.9517473845951" cy="207" r="4.5" stroke="none"/>
<line class="s1" x1="644.1837576497908" x2="656.110998107007" y1="233" y2="233" stroke-width="2" stroke-linecap="round"/>
<circle class="s1" cx="649.9458549644032" cy="233" r="4.5" stroke="none"/>
<line class="other" x1="640.6504335629248" x2="653.0214499731758" y1="259" y2="259" stroke-width="2" stroke-linecap="round"/>
<circle class="other" cx="647.004543458869" cy="259" r="4.5" stroke="none"/>
<line class="other" x1="642.4880786489114" x2="653.9035223486339" y1="285" y2="285" stroke-width="2" stroke-linecap="round"/>
<circle class="other" cx="648.207129998839" cy="285" r="4.5" stroke="none"/>
<line class="other" x1="656.6887515734719" x2="665.7723907788484" y1="311" y2="311" stroke-width="2" stroke-linecap="round"/>
<circle class="other" cx="661.188670994981" cy="311" r="4.5" stroke="none"/>
<text class="ink" x="797" y="56" text-anchor="middle">poison</text>
<line class="grid" x1="738" x2="738" y1="64" y2="324"/>
<text class="muted small" x="738" y="340" text-anchor="middle">0%</text>
<line class="grid" x1="797" x2="797" y1="64" y2="324"/>
<text class="muted small" x="797" y="340" text-anchor="middle">50%</text>
<line class="grid" x1="856" x2="856" y1="64" y2="324"/>
<text class="muted small" x="856" y="340" text-anchor="middle">100%</text>
<line class="other" x1="787.5419334991846" x2="798.9141008604971" y1="77" y2="77" stroke-width="2" stroke-linecap="round"/>
<circle class="other" cx="792.954349664991" cy="77" r="4.5" stroke="none"/>
<line class="other" x1="798.7656952953837" x2="810.1880513766254" y1="103" y2="103" stroke-width="2" stroke-linecap="round"/>
<circle class="other" cx="804.4047053992282" cy="103" r="4.5" stroke="none"/>
<line class="other" x1="808.6884245309197" x2="821.9618138355379" y1="129" y2="129" stroke-width="2" stroke-linecap="round"/>
<circle class="other" cx="815.3161539531474" cy="129" r="4.5" stroke="none"/>
<line class="other" x1="750.5194306035713" x2="772.7756284468857" y1="155" y2="155" stroke-width="2" stroke-linecap="round"/>
<circle class="other" cx="760.5471260992927" cy="155" r="4.5" stroke="none"/>
<line class="other" x1="787.8040517710621" x2="798.9698099067966" y1="181" y2="181" stroke-width="2" stroke-linecap="round"/>
<circle class="other" cx="792.954349664991" cy="181" r="4.5" stroke="none"/>
<line class="other" x1="749.101600778267" x2="770.8663330882408" y1="207" y2="207" stroke-width="2" stroke-linecap="round"/>
<circle class="other" cx="758.7192162615596" cy="207" r="4.5" stroke="none"/>
<line class="s1" x1="798.3964785872122" x2="810.3978736844824" y1="233" y2="233" stroke-width="2" stroke-linecap="round"/>
<circle class="s1" cx="804.3761260160925" cy="233" r="4.5" stroke="none"/>
<line class="other" x1="797.843945308295" x2="809.7472049455872" y1="259" y2="259" stroke-width="2" stroke-linecap="round"/>
<circle class="other" cx="803.7517277507106" cy="259" r="4.5" stroke="none"/>
<line class="other" x1="796.8150436960316" x2="809.1894142473952" y1="285" y2="285" stroke-width="2" stroke-linecap="round"/>
<circle class="other" cx="803.0069079439832" cy="285" r="4.5" stroke="none"/>
<line class="other" x1="808.7620268006827" x2="822.8427383279256" y1="311" y2="311" stroke-width="2" stroke-linecap="round"/>
<circle class="other" cx="815.8088325505236" cy="311" r="4.5" stroke="none"/>
</svg>